<svg xmlns="http://www.w3.org/2000/svg" viewBox="0 0 600 500" width="600" height="500">
  <defs>
    <linearGradient id="bgGrad_BambooToothbrush" x1="0%" y1="0%" x2="100%" y2="100%">
      <stop offset="0%" stop-color="#e8f3ee"/>
      <stop offset="100%" stop-color="#b7e4c7"/>
    </linearGradient>
  </defs>

  <rect width="600" height="500" fill="url(#bgGrad_BambooToothbrush)" rx="24"/>
  <circle cx="520" cy="80" r="140" fill="#ffffff" opacity="0.15"/>
  <circle cx="80" cy="420" r="100" fill="#ffffff" opacity="0.1"/>
  <path d="M 0,350 Q 300,300 600,400 L 600,500 L 0,500 Z" fill="#ffffff" opacity="0.15"/>

  <g transform="translate(0, 0)">
    <rect x="150" y="50" width="300" height="300" rx="24" fill="#ffffff" opacity="0.95" stroke="#74c69d" stroke-width="2"/>
    <g transform="translate(150, 50)">
      <path d="M 130 50 L 170 50 L 165 240 L 135 240 Z" fill="#d4a373" rx="5"/>
     <rect x="135" y="40" width="30" height="45" fill="#f4f1de" rx="4"/>
     <path d="M 140 45 L 140 75 M 145 45 L 145 75 M 150 45 L 150 75 M 155 45 L 155 75 M 160 45 L 160 75" stroke="#52b788" stroke-width="3" stroke-linecap="round"/>
     <circle cx="150" cy="180" r="8" fill="#40916c"/>
    </g>
  </g>

  <rect x="180" y="380" width="240" height="34" rx="17" fill="#1b4332"/>
  <text x="300" y="402" font-family="system-ui, -apple-system, sans-serif" font-weight="700" font-size="12" fill="#e8f3ee" text-anchor="middle" letter-spacing="1.5">PERSONAL CARE</text>
  <text x="300" y="445" font-family="system-ui, -apple-system, sans-serif" font-weight="800" font-size="22" fill="#081c15" text-anchor="middle">Bamboo Toothbrush</text>
</svg>